<?xml version="1.0" encoding="UTF-8" standalone="no"?>
<svg
   xmlns:dc="http://purl.org/dc/elements/1.1/"
   xmlns:cc="http://creativecommons.org/ns#"
   xmlns:rdf="http://www.w3.org/1999/02/22-rdf-syntax-ns#"
   xmlns:svg="http://www.w3.org/2000/svg"
   xmlns="http://www.w3.org/2000/svg"
   viewBox="0 0 266.4567 153.07091"
   id="svg18"
   height="153.07091"
   width="266.4567"
   version="1.1">
  <metadata
     id="metadata24">
    <rdf:RDF>
      <cc:Work
         rdf:about="">
        <dc:format>image/svg+xml</dc:format>
        <dc:type
           rdf:resource="http://purl.org/dc/dcmitype/StillImage" />
      </cc:Work>
    </rdf:RDF>
  </metadata>
  <defs
     id="defs22" />
  <path
     id="path2"
     style="fill:#1b1918;fill-rule:evenodd"
     d="m 132.728,75.8703 c 0.307,0.4162 0.5301,0.7711 0.6659,1.0642 0.2001,0.352 0.39,0.824 0.5692,1.4179 0.2148,0.7171 0.322,1.69 0.322,2.9222 v 6.9919 h -3.1039 v -7.3261 c 0,-2.463 -1.1141,-4.1088 -3.3412,-4.9411 -0.5089,-0.1428 -0.9559,-0.2168 -1.3431,-0.2248 -0.3858,0.008 -0.8308,0.082 -1.332,0.2248 -2.2269,0.8323 -3.3398,2.4781 -3.3398,4.9411 v 7.3261 h -3.1161 v -6.9919 c 0,-1.2322 0.108,-2.2051 0.3232,-2.9222 0.1777,-0.5939 0.3687,-1.0659 0.5689,-1.4179 0.136,-0.3011 0.3608,-0.656 0.6769,-1.0642 1.6679,-2.0468 3.742,-3.0727 6.2189,-3.0727 2.4781,0 4.555,1.0259 6.2311,3.0727 z" />
  <path
     id="path4"
     style="fill:#1b1918;fill-rule:evenodd"
     d="m 143.352,79.3238 h 8.0889 v 2.9993 h -8.0889 z m 1.3099,-6.5353 h 6.779 v 3.007 h -7.219 c -1.3039,0 -2.2918,0.241 -2.965,0.7189 -0.917,0.481 -1.618,1.4091 -2.105,2.7842 -0.108,0.464 -0.161,0.8668 -0.161,1.203 0,1.1679 0.4362,2.2629 1.3102,3.2868 0.572,0.551 1.1089,0.9161 1.6109,1.095 0.551,0.25 1.307,0.375 2.2671,0.375 h 7.2618 v 3.0081 h -6.9179 c -1.7691,0 -3.079,-0.2151 -3.932,-0.644 -1.9051,-0.83 -3.2689,-2.192 -4.0929,-4.0822 -0.4011,-0.9459 -0.6009,-1.9508 -0.6009,-3.0177 0,-2.306 0.9127,-4.2752 2.7388,-5.908 1.1959,-0.9031 2.2771,-1.436 3.2439,-1.6021 0.4941,-0.15 1.4211,-0.224 2.782,-0.224 z" />
  <path
     id="path6"
     style="fill:#1b1918;fill-rule:evenodd"
     d="m 153.3673,72.7885 h 9.9482 c 1.753,0 3.1281,0.525 4.125,1.5781 0.4431,0.4158 0.752,0.8158 0.923,1.203 0.3869,0.773 0.5799,1.2455 0.5799,1.9845 0,1.8749 -1.3895,3.7525 -3.1901,4.3529 1.3042,1.3881 1.9551,4.0765 1.9551,6.3595 h -3.1261 v -0.2361 c 0,-1.6889 -0.6828,-3.8815 -2.052,-4.8773 -0.7798,-0.551 -1.8008,-0.8291 -3.0608,-0.8291 h -6.1022 v -2.986 h 10.1413 c 1.1089,0 1.8609,0.0201 2.2558,-1.0749 0.0431,-0.2231 0.0711,-0.4091 0.0861,-0.559 0,-0.6092 -0.2539,-0.8768 -0.763,-1.3706 -0.4371,-0.3441 -0.902,-0.5162 -1.3961,-0.5162 0,-0.0289 -0.1508,-0.0428 -0.4518,-0.0428 h -9.8723 z" />
  <path
     id="path8"
     style="fill:#1b1918;fill-rule:evenodd"
     d="m 169.7051,72.7976 h 3.0291 l 4.8878,9.561 4.9631,-9.561 h 2.954 l -7.9171,15.8349 z" />
  <path
     id="path10"
     style="fill:#1b1918;fill-rule:evenodd"
     d="m 81.6817,98.6426 c -5.114,0 -9.7441,-2.0733 -13.0955,-5.4244 -3.3511,-3.3511 -5.4243,-7.9815 -5.4243,-13.0955 0,-2.4985 0.5,-4.8895 1.4062,-7.0767 0.7076,-1.7085 1.6586,-3.2848 2.808,-4.684 l 2.2167,2.2167 c -0.8779,1.1078 -1.6041,2.3346 -2.1486,3.6493 -0.749,1.808 -1.1625,3.799 -1.1625,5.8947 0,4.2525 1.724,8.1031 4.5105,10.8896 2.7867,2.7864 6.637,4.5104 10.8895,4.5104 z M 69.9239,65.8199 c 1.4083,-1.1585 2.992,-2.1141 4.7052,-2.8205 2.1813,-0.8997 4.5641,-1.3966 7.0526,-1.3966 2.8199,0 5.5684,0.6466 8.0535,1.8471 2.4818,1.1987 4.6959,2.9505 6.4506,5.1618 l -2.4373,1.9378 c -1.4618,-1.8425 -3.304,-3.3009 -5.3659,-4.2967 -2.0589,-0.9944 -4.3456,-1.5302 -6.7009,-1.5302 -2.0874,0 -4.07,0.4102 -5.8705,1.1529 -1.3278,0.5473 -2.5628,1.277 -3.6751,2.1566 z" />
  <path
     id="path12"
     style="fill:#1b1918;fill-rule:evenodd"
     d="m 62.2752,97.0308 c -2.0404,-2.3412 -3.6235,-5.0137 -4.6965,-7.8772 -1.0746,-2.8693 -1.6384,-5.921 -1.6384,-9.015 0,-6.4636 2.3859,-12.3704 6.3247,-16.8877 l 2.2116,2.2116 c -3.3767,3.9475 -5.4165,9.0739 -5.4165,14.6761 0,2.7391 0.4927,5.4238 1.4315,7.9304 0.9411,2.5124 2.3312,4.8583 4.1233,6.9146 z m 2.5376,-36.322 c 4.511,-3.9124 10.3983,-6.2805 16.8378,-6.2805 7.099,0 13.5274,2.878 18.1797,7.5305 4.6525,4.6525 7.5305,11.0807 7.5305,18.1798 h -3.1198 c 0,-6.238 -2.5288,-11.886 -6.6167,-15.9738 -4.0875,-4.0879 -9.7358,-6.6167 -15.9737,-6.6167 -5.5781,0 -10.6847,2.0223 -14.6254,5.3731 z" />
  <path
     id="path14"
     style="fill:#1b1918;fill-rule:evenodd"
     d="m 81.6817,91.0828 c -3.0262,0 -5.7665,-1.2271 -7.7496,-3.2102 -1.9831,-1.9831 -3.2102,-4.7237 -3.2102,-7.7499 0,-2.3766 0.7568,-4.5768 2.0423,-6.3726 l 2.2487,2.2487 c -0.7423,1.198 -1.1712,2.611 -1.1712,4.1239 0,2.1648 0.8779,4.1255 2.2963,5.544 1.4185,1.4184 3.3789,2.2963 5.5437,2.2963 z M 75.3094,71.2054 c 1.7955,-1.2855 3.9955,-2.0426 6.3723,-2.0426 3.0263,0 5.7668,1.2271 7.75,3.2102 1.9831,1.9832 3.2102,4.7234 3.2102,7.7497 h -0.006 l 9e-4,0.2384 c 0.0028,0.5079 0.0417,0.7676 -0.053,1.322 l -3.03,-5e-4 c 0.394,-3.1604 -0.8353,-5.6597 -2.3065,-7.1309 -1.4185,-1.4184 -3.4007,-2.2691 -5.5656,-2.2691 -1.5128,0 -2.9259,0.4289 -4.1238,1.1713 z" />
  <path
     id="path16"
     style="fill:#38b4aa;fill-rule:evenodd"
     d="m 194.9405,72.7885 h 9.9482 c 1.753,0 3.128,0.525 4.125,1.5781 0.443,0.4158 0.752,0.8158 0.923,1.203 0.3869,0.773 0.5799,1.2455 0.5799,1.9845 0,1.8749 -1.3895,3.7525 -3.1901,4.3529 1.3042,1.3881 1.9551,4.0765 1.9551,6.3595 h -3.1261 v -0.2361 c 0,-1.6889 -0.6828,-3.8815 -2.052,-4.8773 -0.7798,-0.551 -1.8008,-0.8291 -3.0608,-0.8291 h -6.1022 v -2.986 h 10.1413 c 1.1089,0 1.8609,0.0201 2.2558,-1.0749 0.0431,-0.2231 0.0711,-0.4091 0.0861,-0.559 0,-0.6092 -0.2539,-0.8768 -0.763,-1.3706 -0.4371,-0.3441 -0.902,-0.5162 -1.3961,-0.5162 0,-0.0289 -0.1508,-0.0428 -0.4518,-0.0428 h -9.8723 z" />
</svg>
